<svg width="252" height="252" viewBox="0 0 252 252" fill="none" xmlns="http://www.w3.org/2000/svg">
<path d="M1 16C1 7.71573 7.71573 1 16 1H236C244.284 1 251 7.71573 251 16V236C251 244.284 244.284 251 236 251H16C7.71573 251 1 244.284 1 236V16Z" fill="white"/>
<path d="M55.3125 180.588C41.5875 173.664 26.7188 173.857 21 174.818C27.9102 175.299 44.4469 177.847 55.3125 184.194C68.8945 192.128 105.352 195.734 111.785 196.455C118.219 197.176 136.805 197.897 177.551 193.57C180.648 192.368 190.275 184.771 204 164C191.991 181.309 181.84 189.483 178.266 191.406C148.957 196.455 121.078 196.455 103.922 194.291C86.7656 192.127 72.4688 189.243 55.3125 180.588Z" fill="black"/>
<path d="M38.7698 123.952C20 148.983 15.7722 164.496 16.0092 169C19.5641 161.889 31.3757 141.161 52.9894 118.974C74.6032 96.7873 96.5961 88.3962 104.891 86.974C139.018 80.1473 174.093 86.0258 187.364 89.8184C196.607 92.1888 216.515 99.2051 222.202 108.307C227.89 117.41 215.794 146.244 209.405 159.507C227.037 133.338 233.815 111.626 235 104.041C228.364 95.5073 204.286 77.5873 161.058 74.174C117.831 70.7607 97.0701 75.5962 92.0933 78.4407C82.1396 83.1814 57.5397 98.9207 38.7698 123.952Z" fill="black"/>
<path d="M55.3353 76.3988C44.1569 80.4566 1.10829 98.5 1.10829 98.5L1.10828 85L21.8002 76.3988C46.3838 66.1798 83.8758 53.4839 99.5731 48.4713C114.319 43.22 151.802 30.4258 183.768 21.2599C215.733 12.0939 229.908 19.8277 233 24.8403C232.049 24.3629 225.722 24.5539 208.027 29.1368C190.332 33.7198 169.735 40.1169 161.649 42.7425C150.708 46.323 124.118 54.7729 105.281 59.9287C86.4445 65.0845 64.1353 73.057 55.3353 76.3988Z" fill="black"/>
<path d="M115 114.33C115 118.299 119.267 119.764 121.4 120C123.059 120 126.662 119.15 127.8 115.748C128.937 112.346 124.955 109.606 122.822 108.661C121.4 107.243 120.262 103.983 127.088 102.283C123.106 101.149 119.741 103.7 118.555 105.117C117.37 106.535 115 110.362 115 114.33Z" fill="black"/>
<path d="M148.223 147.319C144.769 145.325 141.358 148.29 140.084 150.022C139.253 151.461 138.189 155.013 140.58 157.709C142.97 160.406 147.35 158.328 149.24 156.953C151.186 156.431 154.593 157.083 152.655 163.859C155.636 160.974 155.101 156.773 154.461 155.033C153.821 153.292 151.677 149.314 148.223 147.319Z" fill="black"/>
<path d="M102.741 158.595C106.195 156.601 105.333 152.165 104.471 150.196C103.64 148.756 101.095 146.059 97.565 146.781C94.0347 147.503 93.644 152.334 93.8899 154.66C93.3685 156.605 91.1011 159.23 86.2022 154.164C87.2095 158.188 91.1155 159.825 92.9426 160.141C94.7697 160.457 99.2873 160.59 102.741 158.595Z" fill="black"/>
<path d="M129.997 139.675C130.114 144.048 126.365 147 122.616 147C116.617 146.738 115.039 142.299 115 140.113C115.234 134.209 120.624 132.893 122.616 133.007C128.357 133.335 129.948 137.817 129.997 139.675Z" fill="black"/>
<path d="M30.4873 151.055C34.461 142.834 40.1281 132.72 47.5567 122.509C61.2624 103.669 85.6281 89.919 96.0978 85.3992C107.519 82.3067 137.929 77.2636 168.196 81.831C198.462 86.3983 215.547 95.6281 220.306 99.6721C223.732 111.09 213.643 135.83 208.171 146.773C190.467 177.031 177.951 189.354 173.906 191.732C159.392 194.349 121.939 197.87 88.2456 191.019C54.5523 184.168 40.4183 177.697 37.563 175.319C27.2837 169.609 28.5628 156.764 30.4873 151.055ZM30.4873 151.055C27.1295 158.001 24.9808 163.595 24 166.755M16 251H236C244.284 251 251 244.284 251 236V16C251 7.71573 244.284 1 236 1H16C7.71573 1 1 7.71573 1 16V236C1 244.284 7.71573 251 16 251ZM21 174.818C26.7188 173.857 41.5875 173.664 55.3125 180.588C72.4688 189.243 86.7656 192.127 103.922 194.291C121.078 196.455 148.957 196.455 178.266 191.406C181.84 189.483 191.991 181.309 204 164C190.275 184.771 180.648 192.368 177.551 193.57C136.805 197.897 118.219 197.176 111.785 196.455C105.352 195.734 68.8945 192.128 55.3125 184.194C44.4469 177.847 27.9102 175.299 21 174.818ZM16.0092 169C15.7722 164.496 20 148.983 38.7698 123.952C57.5397 98.9207 82.1396 83.1814 92.0933 78.4407C97.0701 75.5962 117.831 70.7607 161.058 74.174C204.286 77.5873 228.364 95.5073 235 104.041C233.815 111.626 227.037 133.338 209.405 159.507C215.794 146.244 227.89 117.41 222.202 108.307C216.515 99.2051 196.607 92.1888 187.364 89.8184C174.093 86.0258 139.018 80.1473 104.891 86.974C96.5961 88.3962 74.6032 96.7873 52.9894 118.974C31.3757 141.161 19.5641 161.889 16.0092 169ZM1.10829 98.5C1.10829 98.5 44.1569 80.4566 55.3353 76.3988C64.1353 73.057 86.4445 65.0845 105.281 59.9287C124.118 54.7729 150.708 46.323 161.649 42.7425C169.735 40.1169 190.332 33.7198 208.027 29.1368C225.722 24.5539 232.049 24.3629 233 24.8403C229.908 19.8277 215.733 12.0939 183.768 21.2599C151.802 30.4258 114.319 43.22 99.5731 48.4713C83.8758 53.4839 46.3838 66.1798 21.8002 76.3988L1.10828 85L1.10829 98.5ZM121.4 120C119.267 119.764 115 118.299 115 114.33C115 110.362 117.37 106.535 118.555 105.117C119.741 103.7 123.106 101.149 127.088 102.283C120.262 103.983 121.4 107.243 122.822 108.661C124.955 109.606 128.937 112.346 127.8 115.748C126.662 119.15 123.059 120 121.4 120ZM140.084 150.022C141.358 148.29 144.769 145.325 148.223 147.319C151.677 149.314 153.821 153.292 154.461 155.033C155.101 156.773 155.636 160.974 152.655 163.859C154.593 157.083 151.186 156.431 149.24 156.953C147.35 158.328 142.97 160.406 140.58 157.709C138.189 155.013 139.253 151.461 140.084 150.022ZM104.471 150.196C105.333 152.165 106.195 156.601 102.741 158.595C99.2873 160.59 94.7697 160.457 92.9426 160.141C91.1155 159.825 87.2095 158.188 86.2022 154.164C91.1011 159.23 93.3685 156.605 93.8899 154.66C93.644 152.334 94.0347 147.503 97.565 146.781C101.095 146.059 103.64 148.756 104.471 150.196ZM123.203 186C145.949 186 168.695 166.814 167.984 138.39C167.682 126.309 158.032 97.1747 123.203 95.0429C111.119 94.3033 78.4216 102.86 77 141.232C77.2369 155.444 86.8092 184.295 123.203 186ZM122.94 169C137.188 169 151.435 156.982 150.99 139.178C150.801 131.611 144.757 113.362 122.94 112.027C115.371 111.564 94.8905 116.923 94 140.959C94.1484 149.861 100.144 167.932 122.94 169ZM122.616 147C126.365 147 130.114 144.048 129.997 139.675C129.948 137.817 128.357 133.335 122.616 133.007C120.624 132.893 115.234 134.209 115 140.113C115.039 142.299 116.617 146.738 122.616 147Z" stroke="black"/>
</svg>
